<?xml version="1.0" encoding="UTF-8"?>
<svg id="Layer_2" data-name="Layer 2" xmlns="http://www.w3.org/2000/svg" viewBox="0 0 2406.27 590.03">
  <g id="Layer_1-2" data-name="Layer 1">
    <g>
      <path d="M486.29,543V108h136.2c35.6,0,66.9,3.51,93.9,10.5,27,7,48.2,19.9,63.6,38.7,15.39,18.81,23.1,46.2,23.1,82.2s-7.71,63.4-23.1,82.2c-15.4,18.81-36.6,31.71-63.6,38.7-27,7-58.3,10.5-93.9,10.5h-75v172.2h-61.2ZM547.49,317.4h79.8c21.2,0,40.4-1.5,57.6-4.5,17.19-3,30.8-10.1,40.8-21.3,9.99-11.19,15-28.59,15-52.2s-5.01-41.1-15-52.5c-10-11.4-23.61-18.8-40.8-22.2-17.2-3.39-36.4-5.1-57.6-5.1h-79.8v157.8Z"/>
      <path d="M994.5,550.8c-18.81,0-37.5-3.3-56.1-9.9-18.6-6.6-35.4-16.7-50.4-30.3-15-13.59-27-30.99-36-52.2-9-21.2-13.5-46.4-13.5-75.6s4.5-54.39,13.5-75.6c9-21.2,21-38.6,36-52.2,15-13.59,31.8-23.7,50.4-30.3,18.6-6.6,37.29-9.9,56.1-9.9s37.5,3.3,56.1,9.9c18.6,6.6,35.4,16.71,50.4,30.3,15,13.6,27,31,36,52.2,9,21.21,13.5,46.41,13.5,75.6s-4.5,54.4-13.5,75.6c-9,21.21-21,38.61-36,52.2-15,13.6-31.8,23.7-50.4,30.3-18.6,6.6-37.3,9.9-56.1,9.9ZM994.5,502.8c16.4,0,32-3.99,46.8-12,14.79-8,26.79-20.9,36-38.7,9.2-17.79,13.8-40.89,13.8-69.3s-4.6-51.99-13.8-69.6c-9.21-17.6-21.21-30.39-36-38.4-14.8-8-30.4-12-46.8-12s-32.01,4-46.8,12c-14.8,8.01-26.8,20.8-36,38.4-9.21,17.61-13.8,40.8-13.8,69.6s4.59,51.51,13.8,69.3c9.2,17.8,21.2,30.7,36,38.7,14.79,8.01,30.39,12,46.8,12Z"/>
      <path d="M1222.49,543V220.2h53.4v56.4c8-18.39,20-32.6,36-42.6,15.99-9.99,34.4-15.2,55.2-15.6h8.1c2.6,0,5.3.21,8.1.6v58.2c-6.4-.8-12-1.4-16.8-1.8-4.8-.39-9.4-.6-13.8-.6-25.2,0-44.1,7.6-56.7,22.8-12.6,15.21-18.9,40.6-18.9,76.2v169.2h-54.6Z"/>
      <path d="M1575.88,543h-39.6c-20.4,0-36.1-2.1-47.1-6.3-11.01-4.2-18.6-12.09-22.8-23.7-4.2-11.6-6.3-28.59-6.3-51v-198h-51v-43.8h51v-81h54.6v81h61.2v43.8h-61.2v191.4c0,16.8,1.7,28,5.1,33.6,3.39,5.61,12.9,8.4,28.5,8.4h27.6v45.6Z"/>
      <path d="M1773.28,550.8c-18.81,0-37.5-3.3-56.1-9.9-18.6-6.6-35.4-16.7-50.4-30.3-15-13.59-27-30.99-36-52.2-9-21.2-13.5-46.4-13.5-75.6s4.5-54.39,13.5-75.6c9-21.2,21-38.6,36-52.2,15-13.59,31.8-23.7,50.4-30.3,18.6-6.6,37.29-9.9,56.1-9.9s37.5,3.3,56.1,9.9c18.6,6.6,35.4,16.71,50.4,30.3,15,13.6,27,31,36,52.2,9,21.21,13.5,46.41,13.5,75.6s-4.5,54.4-13.5,75.6c-9,21.21-21,38.61-36,52.2-15,13.6-31.8,23.7-50.4,30.3-18.6,6.6-37.3,9.9-56.1,9.9ZM1773.28,502.8c16.4,0,32-3.99,46.8-12,14.79-8,26.79-20.9,36-38.7,9.2-17.79,13.8-40.89,13.8-69.3s-4.6-51.99-13.8-69.6c-9.21-17.6-21.21-30.39-36-38.4-14.8-8-30.4-12-46.8-12s-32.01,4-46.8,12c-14.8,8.01-26.8,20.8-36,38.4-9.21,17.61-13.8,40.8-13.8,69.6s4.59,51.51,13.8,69.3c9.2,17.8,21.2,30.7,36,38.7,14.79,8.01,30.39,12,46.8,12Z"/>
      <path d="M2001.27,543V108h54.6v435h-54.6Z"/>
      <path d="M2406.27,543h-55.2c-2.8-15.6-4.2-30.39-4.2-44.4-10,16.41-23.8,29.2-41.4,38.4-17.61,9.2-40.6,13.8-69,13.8-20.01,0-38.5-3.6-55.5-10.8-17.01-7.2-30.51-17.79-40.5-31.8-10-14-15-30.8-15-50.4,0-25.59,9-45.69,27-60.3,18-14.6,43.4-25.89,76.2-33.9,32.79-8,71.19-14.4,115.2-19.2v-7.8c0-29.6-7.2-50.1-21.6-61.5-14.4-11.4-31.6-17.1-51.6-17.1-22.41,0-40,5.7-52.8,17.1-12.81,11.4-19.8,27.1-21,47.1h-56.4c2-23.19,9.2-42.9,21.6-59.1,12.39-16.2,28.2-28.5,47.4-36.9,19.2-8.4,39.39-12.6,60.6-12.6,44.4,0,76.8,10.9,97.2,32.7,20.4,21.81,30.6,55.3,30.6,100.5v74.4c0,26.8.69,50.01,2.1,69.6,1.4,19.6,3.5,37,6.3,52.2ZM2348.07,408v-20.4c-32.8,3.21-61.41,7.41-85.8,12.6-24.4,5.2-43.2,12.21-56.4,21-13.2,8.8-19.8,20.61-19.8,35.4s5.49,27.51,16.5,36.9c11,9.4,26.3,14.1,45.9,14.1,17.19,0,33.3-3,48.3-9s27.3-16.29,36.9-30.9c9.6-14.6,14.4-34.5,14.4-59.7Z"/>
    </g>
    <g id="uuid-553f61da-569c-4e77-a37d-dabd73d42a80" data-name="Layer 1-2">
      <path d="M385,192.48h-24c0-92.9-75.58-168.48-168.48-168.48S24.04,99.58,24.04,192.48H.04C.04,86.35,86.39,0,192.52,0s192.48,86.35,192.48,192.48Z"/>
      <path d="M373,201.57c-6.63,0-12-5.37-12-12,0-68.97-56.12-125.09-125.09-125.09-33.44,0-64.83,12.92-88.38,36.39-23.56,23.48-36.53,54.79-36.53,88.18,0,6.63-5.37,12-12,12s-12-5.37-12-12c0-39.81,15.48-77.16,43.59-105.18,28.08-27.98,65.48-43.39,105.32-43.39,82.21,0,149.09,66.88,149.09,149.09,0,6.63-5.37,12-12,12Z"/>
      <path d="M385,190.3h-24c0-45.44-37.48-82.41-83.54-82.41s-83.54,36.97-83.54,82.41h-24c0-58.67,48.24-106.41,107.54-106.41s107.54,47.73,107.54,106.41Z"/>
      <path d="M385,191.55h-24c0-25.53-21.08-46.3-47-46.3s-47,20.77-47,46.3h-24c0-38.76,31.85-70.3,71-70.3s71,31.54,71,70.3Z"/>
      <rect x="-1.57" y="507" width="270.14" height="24" transform="translate(-213.29 110.44) rotate(-25.9)"/>
      <rect x="243" y="188" width="24" height="272"/>
      <rect x="170" y="185.81" width="24" height="305.19"/>
      <path d="M99,543c-6.63,0-12-5.37-12-12V189.05c0-6.63,5.37-12,12-12s12,5.37,12,12v341.95c0,6.63-5.37,12-12,12Z"/>
      <polygon points="0 590.03 0 190 24 190 24 565.97 359.06 565.03 361 188.94 385 189.06 382.94 588.97 0 590.03"/>
      <rect x="255" y="448" width="117" height="24"/>
    </g>
  </g>
</svg>